<?xml version="1.0" encoding="UTF-8"?>
<!-- Logo kurzy.cz, default. 2015 Antonin Follower, http://www.kurzy.cz/-->
<svg xmlns="http://www.w3.org/2000/svg" width="206.211px" height="53.926px" viewBox="0 0 206.211 53.926" enable-background="new 0 0 206.211 53.926">
<g fill="#000">
	<path d="M2.152,0H0v45.134h2.451c0,0,0-14.058,0-14.335c0.207-0.171,8.629-7.138,9.072-7.504c0.373,0.47,17.314,21.839,17.314,21.839h3.234c0,0-18.332-23.042-18.691-23.493c0.441-0.366,17.807-14.787,17.807-14.787H27.52c0,0-24.121,20.045-25.068,20.831c0-1.221,0-27.685,0-27.685H2.152z"/>
	<path d="M60.747,6.854h-2.152V31.87c0,7.303-4.223,11.67-11.297,11.683c-7.105-0.013-11.35-4.38-11.35-11.683V6.854h-2.449v25.233c0,8.585,5.277,13.918,13.772,13.918c8.497,0,13.774-5.333,13.774-13.918V6.854H60.747z"/>
	<path d="M81.821,6.854h-3.788c-8.497,0-13.775,5.333-13.775,13.917v24.338h2.453v-24.12c0-7.317,4.232-11.686,11.322-11.686l4.088,0.003V6.854H81.821z"/>
	<path d="M111.185,6.854H84.807v2.448c0,0,22.484,0,23.64,0c-0.719,0.938-25.597,33.35-25.597,33.35v2.481h29.793v-2.451c0,0-25.594,0-26.757,0c0.72-0.938,25.598-33.348,25.598-33.348V6.854H111.185z"/>
	<path d="M145.48,6.854h-2.16c0,0-12.514,33.117-13.025,34.47c-0.561-1.335-14.44-34.47-14.44-34.47h-2.685c0,0,15.714,37.197,15.812,37.425c-0.092,0.225-3.941,9.647-3.941,9.647h2.676l18.201-47.072H145.48z"/>
</g>
<g fill="#D09910">
	<path d="M143.58,26.713c0,11.392,7.057,19.348,17.158,19.348c8.801,0,15.018-5.54,15.838-14.113l0.053-0.548h-2.475l-0.035,0.461c-0.545,7.021-5.924,11.739-13.381,11.739c-10.152,0-14.697-8.481-14.697-16.887c0-8.94,4.092-18.494,15.572-18.494c6.611,0,11.178,3.885,12.219,10.391c0,0.001,0.068,0.421,0.068,0.421h2.449l-0.066-0.559c-0.906-7.605-6.803-12.715-14.67-12.715C148.303,5.758,143.58,17.046,143.58,26.713z"/>
	<path d="M204.742,6.635h-26.561v2.461c0,0,22.656,0,23.813,0c-0.719,0.938-25.785,33.593-25.785,33.593v2.496h30.002v-2.461c0,0-25.791,0-26.953,0c0.719-0.938,25.783-33.593,25.783-33.593V6.635H204.742z"/>
</g>
</svg>